<svg width="24" height="24" viewBox="0 0 24 24" fill="none" xmlns="http://www.w3.org/2000/svg">
    <path fill-rule="evenodd" clip-rule="evenodd"
        d="M2.10046 12.0001C2.10046 6.53248 6.53284 2.1001 12.0005 2.1001C17.4681 2.1001 21.9004 6.53248 21.9004 12.0001C21.9004 17.4677 17.4681 21.9001 12.0005 21.9001C6.53284 21.9001 2.10046 17.4677 2.10046 12.0001ZM13.0004 16.2501C13.0004 16.8024 12.5527 17.2501 12.0004 17.2501C11.4482 17.2501 11.0004 16.8024 11.0004 16.2501C11.0004 15.6978 11.4482 15.2501 12.0004 15.2501C12.5527 15.2501 13.0004 15.6978 13.0004 16.2501ZM11.1004 6.75012V13.7501H12.9004V6.75012H11.1004Z"
        fill="currentColor" />
</svg>