<svg width="24" height="24" viewBox="0 0 24 24" fill="none" xmlns="http://www.w3.org/2000/svg">
    <path fill-rule="evenodd" clip-rule="evenodd"
        d="M4.3308 4.33071C4.83848 3.82303 5.6616 3.82303 6.16928 4.33071L12 10.1615L17.8308 4.33071C18.3385 3.82303 19.1616 3.82303 19.6693 4.33071C20.177 4.83839 20.177 5.66151 19.6693 6.16919L13.8385 12L19.6693 17.8307C20.177 18.3384 20.177 19.1615 19.6693 19.6692C19.1616 20.1769 18.3385 20.1769 17.8308 19.6692L12 13.8384L6.16928 19.6692C5.6616 20.1769 4.83848 20.1769 4.3308 19.6692C3.82312 19.1615 3.82312 18.3384 4.3308 17.8307L10.1616 12L4.3308 6.16919C3.82312 5.66151 3.82312 4.83839 4.3308 4.33071Z"
        fill="currentColor" />
</svg>