<svg width="24" height="24" viewBox="0 0 24 24" fill="none" xmlns="http://www.w3.org/2000/svg">
    <path fill-rule="evenodd" clip-rule="evenodd"
        d="M11.1005 12.9V17H12.9005V12.9H17.0005V11.1H12.9005V7.00001H11.1005V11.1H7.00052V12.9H11.1005Z"
        fill="#currentColor" />
    <path fill-rule="evenodd" clip-rule="evenodd"
        d="M12.0005 3.90001C7.52701 3.90001 3.90052 7.5265 3.90052 12C3.90052 16.4735 7.52701 20.1 12.0005 20.1C16.474 20.1 20.1005 16.4735 20.1005 12C20.1005 7.5265 16.474 3.90001 12.0005 3.90001ZM2.10052 12C2.10052 6.53239 6.5329 2.10001 12.0005 2.10001C17.4681 2.10001 21.9005 6.53239 21.9005 12C21.9005 17.4676 17.4681 21.9 12.0005 21.9C6.5329 21.9 2.10052 17.4676 2.10052 12Z"
        fill="#currentColor" />
</svg>