<svg width="24" height="24" viewBox="0 0 24 24" fill="none" xmlns="http://www.w3.org/2000/svg">
    <path fill-rule="evenodd" clip-rule="evenodd"
        d="M12.0004 2.10001C6.53278 2.10001 2.1004 6.53239 2.1004 12C2.1004 17.4676 6.53278 21.9 12.0004 21.9C17.468 21.9 21.9004 17.4676 21.9004 12C21.9004 6.53239 17.468 2.10001 12.0004 2.10001ZM12.0004 3.90001C7.5269 3.90001 3.9004 7.5265 3.9004 12C3.9004 16.4735 7.5269 20.1 12.0004 20.1C16.4739 20.1 20.1004 16.4735 20.1004 12C20.1004 7.5265 16.4739 3.90001 12.0004 3.90001ZM11.0004 8.00001C11.0004 7.44772 11.4481 7.00001 12.0004 7.00001C12.5527 7.00001 13.0004 7.44772 13.0004 8.00001C13.0004 8.55229 12.5527 9.00001 12.0004 9.00001C11.4481 9.00001 11.0004 8.55229 11.0004 8.00001ZM11.1004 10.5V17H12.9004V10.5H11.1004Z"
        fill="currentColor" />
</svg>