<svg width="24" height="24" viewBox="0 0 24 24" fill="none" xmlns="http://www.w3.org/2000/svg">
    <path fill-rule="evenodd" clip-rule="evenodd"
        d="M12.0006 2.1001C6.53296 2.1001 2.10059 6.53248 2.10059 12.0001C2.10059 17.4677 6.53296 21.9001 12.0006 21.9001C17.4682 21.9001 21.9006 17.4677 21.9006 12.0001C21.9006 6.53248 17.4682 2.1001 12.0006 2.1001ZM12.0006 7.00012C11.4483 7.00012 11.0006 7.44784 11.0006 8.00012C11.0006 8.55241 11.4483 9.00012 12.0006 9.00012C12.5529 9.00012 13.0006 8.55241 13.0006 8.00012C13.0006 7.44784 12.5529 7.00012 12.0006 7.00012ZM11.1006 17.0001V10.5001H12.9006V17.0001H11.1006Z"
        fill="currentColor" />
</svg>