<svg width="24" height="24" viewBox="0 0 24 24" fill="none" xmlns="http://www.w3.org/2000/svg">
<path fill-rule="evenodd" clip-rule="evenodd" d="M20.9001 15L20.9001 18.4304C20.9002 18.6847 20.9002 18.9267 20.8835 19.1307C20.8654 19.3531 20.823 19.6082 20.6931 19.8632C20.5109 20.2207 20.2202 20.5113 19.8627 20.6935C19.6078 20.8234 19.3526 20.8658 19.1302 20.884C18.9263 20.9006 18.6843 20.9006 18.43 20.9006H5.5704C5.3161 20.9006 5.07402 20.9006 4.87007 20.884C4.64767 20.8658 4.39256 20.8234 4.13758 20.6935C3.78007 20.5113 3.48941 20.2207 3.30725 19.8632C3.17733 19.6082 3.13495 19.3531 3.11677 19.1307C3.10011 18.9267 3.10013 18.6847 3.10016 18.4303V15H4.90016V19.0003C4.90016 19.0555 4.94494 19.1003 5.00016 19.1003H19.0001C19.0554 19.1003 19.1002 19.0555 19.1002 19.0003V15H20.9001Z" fill="#1F1F1F"/>
<path d="M11.1 4.00059V13.4186L8.36687 10.8462C8.00491 10.5055 7.43532 10.5228 7.09466 10.8847C6.75399 11.2467 6.77125 11.8163 7.13321 12.1569L11.3832 16.1569C11.7298 16.4831 12.2703 16.4831 12.6169 16.1569L16.8669 12.1569C17.2288 11.8163 17.2461 11.2467 16.9054 10.8847C16.5648 10.5228 15.9952 10.5055 15.6332 10.8462L12.9 13.4186V4.00059C12.9 3.50353 12.4971 3.10059 12 3.10059C11.503 3.10059 11.1 3.50353 11.1 4.00059Z" fill="#1F1F1F"/>
</svg>
