<svg width="24" height="24" viewBox="0 0 24 24" fill="none" xmlns="http://www.w3.org/2000/svg">
    <path fill-rule="evenodd" clip-rule="evenodd"
        d="M17.1459 9.62683L10.6766 16.2922L6.85428 12.3541L8.14592 11.1005L10.6766 13.7078L15.8543 8.37318L17.1459 9.62683Z"
        fill="currentColor" />
    <path fill-rule="evenodd" clip-rule="evenodd"
        d="M12.0001 3.90001C7.52659 3.90001 3.9001 7.5265 3.9001 12C3.9001 16.4735 7.52659 20.1 12.0001 20.1C16.4736 20.1 20.1001 16.4735 20.1001 12C20.1001 7.5265 16.4736 3.90001 12.0001 3.90001ZM2.1001 12C2.1001 6.53239 6.53248 2.10001 12.0001 2.10001C17.4677 2.10001 21.9001 6.53239 21.9001 12C21.9001 17.4676 17.4677 21.9 12.0001 21.9C6.53248 21.9 2.1001 17.4676 2.1001 12Z"
        fill="currentColor" />
</svg>