<svg width="24" height="24" viewBox="0 0 24 24" fill="none" xmlns="http://www.w3.org/2000/svg">
    <path fill-rule="evenodd" clip-rule="evenodd"
        d="M12.0003 3.90001C7.52677 3.90001 3.90028 7.5265 3.90028 12C3.90028 16.4735 7.52677 20.1 12.0003 20.1C16.4738 20.1 20.1003 16.4735 20.1003 12C20.1003 7.5265 16.4738 3.90001 12.0003 3.90001ZM2.10028 12C2.10028 6.53239 6.53266 2.10001 12.0003 2.10001C17.4679 2.10001 21.9003 6.53239 21.9003 12C21.9003 17.4676 17.4679 21.9 12.0003 21.9C6.53266 21.9 2.10028 17.4676 2.10028 12Z"
        fill="currentColor" />
    <path
        d="M13.0003 16.25C13.0003 16.8023 12.5526 17.25 12.0003 17.25C11.448 17.25 11.0003 16.8023 11.0003 16.25C11.0003 15.6977 11.448 15.25 12.0003 15.25C12.5526 15.25 13.0003 15.6977 13.0003 16.25Z"
        fill="currentColor" />
    <path fill-rule="evenodd" clip-rule="evenodd" d="M11.1003 13.75V6.75001H12.9003V13.75H11.1003Z"
        fill="currentColor" />
</svg>