<svg width="24" height="24" viewBox="0 0 24 24" fill="none" xmlns="http://www.w3.org/2000/svg">
    <path fill-rule="evenodd" clip-rule="evenodd"
        d="M12.0007 3.90001C7.5272 3.90001 3.90071 7.5265 3.90071 12C3.90071 16.4735 7.5272 20.1 12.0007 20.1C16.4742 20.1 20.1007 16.4735 20.1007 12C20.1007 7.5265 16.4742 3.90001 12.0007 3.90001ZM2.10071 12C2.10071 6.53239 6.53308 2.10001 12.0007 2.10001C17.4683 2.10001 21.9007 6.53239 21.9007 12C21.9007 17.4676 17.4683 21.9 12.0007 21.9C6.53308 21.9 2.10071 17.4676 2.10071 12Z"
        fill="currentColor" />
    <path
        d="M13.0007 16.5C13.0007 17.0523 12.553 17.5 12.0007 17.5C11.4484 17.5 11.0007 17.0523 11.0007 16.5C11.0007 15.9477 11.4484 15.5 12.0007 15.5C12.553 15.5 13.0007 15.9477 13.0007 16.5Z"
        fill="currentColor" />
    <path fill-rule="evenodd" clip-rule="evenodd"
        d="M11.8654 6.60253C12.4378 6.58115 13.0094 6.69567 13.5257 6.9387C14.0423 7.18185 14.4907 7.54785 14.8211 8.00867C15.152 8.47016 15.3517 9.00949 15.3928 9.57449C15.4339 10.1397 15.3142 10.7017 15.0506 11.2042C14.7874 11.7059 14.3921 12.1271 13.9114 12.4335L13.904 12.4382L13.8965 12.4428C13.5777 12.6374 13.3211 12.8934 13.1415 13.1848C12.966 13.4697 12.8675 13.7826 12.8486 14.0992V14.375H11.0486V14.0528L11.0497 14.0308C11.0809 13.3972 11.2744 12.7838 11.6091 12.2406C11.9417 11.7008 12.403 11.2475 12.9501 10.9117C13.175 10.7669 13.3467 10.5775 13.4566 10.368C13.5671 10.1573 13.6139 9.92951 13.5975 9.70508C13.5812 9.48047 13.5015 9.25726 13.3583 9.05749C13.2145 8.85704 13.0103 8.68556 12.7591 8.56731C12.5076 8.44895 12.2225 8.39045 11.9325 8.40128C11.6426 8.41211 11.3651 8.4916 11.1272 8.62702C10.8897 8.76226 10.7038 8.94618 10.58 9.15381C10.4567 9.3607 10.3972 9.58702 10.4009 9.81177L8.60109 9.84085C8.59194 9.27432 8.74324 8.71981 9.03383 8.23226C9.32396 7.74546 9.74094 7.345 10.2366 7.06279C10.732 6.78075 11.2929 6.62391 11.8654 6.60253Z"
        fill="currentColor" />
</svg>