<svg width="24" height="24" viewBox="0 0 24 24" fill="none" xmlns="http://www.w3.org/2000/svg">
    <path fill-rule="evenodd" clip-rule="evenodd"
        d="M2.10089 12.0001C2.10089 6.53248 6.53327 2.1001 12.0009 2.1001C17.4685 2.1001 21.9009 6.53248 21.9009 12.0001C21.9009 17.4677 17.4685 21.9001 12.0009 21.9001C6.53327 21.9001 2.10089 17.4677 2.10089 12.0001ZM13.0009 16.5001C13.0009 17.0524 12.5532 17.5001 12.0009 17.5001C11.4486 17.5001 11.0009 17.0524 11.0009 16.5001C11.0009 15.9478 11.4486 15.5001 12.0009 15.5001C12.5532 15.5001 13.0009 15.9478 13.0009 16.5001ZM13.5259 6.9388C13.0095 6.69576 12.438 6.58124 11.8656 6.60262C11.2931 6.624 10.7321 6.78084 10.2368 7.06288C9.74113 7.3451 9.32415 7.74555 9.03402 8.23235C8.74343 8.7199 8.59213 9.27441 8.60128 9.84094L10.401 9.81186C10.3974 9.58711 10.4569 9.36079 10.5802 9.1539C10.704 8.94627 10.8899 8.76235 11.1274 8.62711C11.3653 8.49169 11.6428 8.4122 11.9327 8.40137C12.2227 8.39054 12.5078 8.44904 12.7593 8.5674C13.0105 8.68565 13.2147 8.85713 13.3585 9.05758C13.5017 9.25735 13.5814 9.48056 13.5977 9.70518C13.614 9.9296 13.5673 10.1574 13.4568 10.368C13.3469 10.5776 13.1752 10.767 12.9502 10.9118C12.4032 11.2475 11.9419 11.7009 11.6093 12.2407C11.2746 12.7839 11.0811 13.3973 11.0499 14.0308L11.0488 14.0529V14.3751H12.8488V14.0993C12.8677 13.7827 12.9662 13.4698 13.1417 13.1849C13.3213 12.8935 13.5779 12.6375 13.8967 12.4429L13.9042 12.4383L13.9116 12.4336C14.3923 12.1272 14.7876 11.706 15.0508 11.2043C15.3144 10.7018 15.4341 10.1398 15.393 9.57458C15.3519 9.00958 15.1522 8.47025 14.8213 8.00876C14.4909 7.54794 14.0424 7.18194 13.5259 6.9388Z"
        fill="currentColor" />
</svg>